<svg width="12" height="13" viewBox="0 0 12 13" fill="none" xmlns="http://www.w3.org/2000/svg">
<path d="M11.8388 5.89467C11.5344 2.78139 8.75979 0.507052 5.64731 0.819617C2.54642 1.13102 0.282349 3.89314 0.585585 6.99487C0.888822 10.0965 3.64498 12.3677 6.74751 12.073C9.86153 11.7768 12.1431 9.00796 11.8388 5.89467ZM7.6244 2.1248C7.69343 2.12461 7.74498 2.13864 7.8092 2.1561L7.8231 2.15988C7.84818 2.28589 7.82305 2.34445 7.75714 2.4517C7.64178 2.63944 7.5134 2.81919 7.38497 2.99897C7.15831 3.3163 6.93165 3.6337 6.77634 3.99524C6.43961 4.7791 6.51809 5.69342 6.59738 6.61731C6.66678 7.42589 6.73679 8.2418 6.52963 8.984C6.2804 9.87688 5.65474 10.4609 4.87137 10.8965C4.82792 10.9038 4.78001 10.9001 4.73395 10.8965C4.72431 10.8958 4.71477 10.8951 4.70533 10.8944C4.69938 10.894 4.69349 10.8937 4.68764 10.8934L4.6801 10.8791C4.63542 10.7942 4.63276 10.789 4.66507 10.6924C4.70703 10.5671 4.79048 10.4389 4.86911 10.318C4.89917 10.2719 4.9285 10.2268 4.95456 10.1834C5.22687 9.72971 5.49384 9.23958 5.57734 8.71009C5.68167 8.04888 5.62612 7.36847 5.57057 6.68805C5.5001 5.82472 5.42962 4.961 5.68583 4.13689C6.00055 3.12431 6.73741 2.59614 7.6244 2.1248Z" fill="#0B0803"/>
</svg>
